<?xml version="1.0" encoding="UTF-8"?>
<svg id="Ebene_2" xmlns="http://www.w3.org/2000/svg" version="1.1" viewBox="0 0 2927.3 820.6">
  <!-- Generator: Adobe Illustrator 29.6.1, SVG Export Plug-In . SVG Version: 2.1.1 Build 9)  -->
  <defs>
    <style>
      .st0 {
        fill: #fff;
      }
    </style>
  </defs>
  <g id="Ebene_1-2">
    <g>
      <path class="st0" d="M445.4,305.9l41.9-263.6c3-20.5-15.2-30.9-32.2-35.5-33.4-9.1-118.9-10.5-150,4.3-12.4,5.9-22.4,15.4-20.5,30.2l41.9,264.6c-71.9-56.1-142-114.6-214.3-170.2-8.5-3.7-15.3-2.8-23.7.7-25.7,10.9-57.9,67.4-70.4,92.6-10.7,21.5-32.6,68-3.7,83.4l252,98L18.5,506.4c-17.3,5.7-19.7,22.8-17.9,38.9,3.4,30.3,54.1,114.1,79,132,11.8,8.5,23.8,12.4,37.2,4.4l209.7-166.8-42,266.5c-1.1,12.6,7.7,22.5,18.4,27.7,31.3,15.2,135.1,15.2,166.4,0,12.6-6.1,20.4-15.8,18.2-30.6l-41.9-263.6c.7-.8,6.5,4.3,7.5,5,69.3,54.2,136.6,111.2,206.9,164.2,11.8,5.6,24.7.5,34.6-6.8,25.7-18.9,75.8-105.3,78.1-136.9,1-13.8-1.6-24.9-14.2-31.9l-250.9-97.6c-1-1.3,7.7-4.3,8.8-4.7,78.5-32,158.6-60.2,237.2-91.8,42.2-17.1,3.4-81.2-11.8-107.2s-53.2-94.4-89.5-66.2l-206.7,164.8h-.2Z"/>
      <path class="st0" d="M445.4,305.9l206.7-164.8c36.3-28.2,74.2,40.1,89.5,66.2s54,90,11.8,107.2c-78.7,31.5-158.8,59.7-237.2,91.8-1,.4-9.7,3.5-8.8,4.7l250.9,97.6c12.6,7,15.2,18.2,14.2,31.9-2.3,31.6-52.4,118-78.1,136.9-9.9,7.3-22.8,12.4-34.6,6.8-70.3-52.9-137.5-109.9-206.9-164.2-1-.8-6.8-5.8-7.5-5l41.9,263.6c2.2,14.7-5.6,24.4-18.2,30.6-31.3,15.2-135.1,15.2-166.4,0-10.7-5.2-19.5-15.1-18.4-27.7l42-266.5-209.7,166.8c-13.4,8-25.4,4.1-37.2-4.4C54.6,659.4,3.9,575.6.5,545.3c-1.8-16,.6-33.1,17.9-38.9l248-96L14.4,312.4c-29-15.4-7-61.9,3.7-83.4,12.5-25.2,44.7-81.7,70.4-92.6,8.4-3.5,15.2-4.4,23.7-.7,72.3,55.6,142.4,114.1,214.3,170.2l-41.9-264.6c-1.8-14.9,8.1-24.4,20.5-30.2,31.1-14.8,116.6-13.4,150-4.3,17,4.7,35.3,15,32.2,35.5l-41.9,263.6h0Z"/>
    </g>
  </g>
  <g>
    <path class="st0" d="M906.8,710.6l187.2-288.3-171.4-276.5h150.1l103.5,172.2h1.6l104.3-172.2h150.1l-171.4,274.9,187.2,289.9h-158l-112.2-183.2h-1.6l-111.4,183.2h-158,0Z"/>
    <path class="st0" d="M1421.8,508.3c0-125.6,80.6-215.6,205.4-215.6s188,69.5,198.3,164.3h-127.2c-3.9-33.2-18.2-69.5-68.7-69.5s-78.2,45-78.2,120.9,25.3,120.9,78.2,120.9,64.8-34,68.7-71.1h127.2c-6.3,96.4-79,165.9-195.1,165.9s-208.5-89.3-208.5-215.6v-.2Z"/>
    <path class="st0" d="M1855.4,509.1c0-127.2,81.4-216.4,217.2-216.4s214.8,86.9,214.8,214.1-81.4,217.2-217.2,217.2-214.8-86.9-214.8-214.8h0ZM2159.5,508.3c0-78.2-31.6-120.9-87.7-120.9s-88.5,42.7-88.5,120.9,31.6,120.9,88.5,120.9,87.7-42.7,87.7-120.9Z"/>
    <path class="st0" d="M2339.6,258v-112.2h126.4v112.2h-126.4ZM2339.6,710.6v-404.4h126.4v404.4h-126.4Z"/>
    <path class="st0" d="M2927.3,437.3v273.3h-126.4v-233c0-60.8-21.3-81.4-63.2-81.4s-75.8,24.5-75.8,80.6v233.8h-126.4v-404.4h126.4v58.5h1.6c21.3-37.1,60.8-71.1,132.7-71.1s131.1,51.3,131.1,143.8h0Z"/>
  </g>
</svg>